<svg xmlns="http://www.w3.org/2000/svg" viewBox="0 0 200 200">
  <rect width="200" height="200" fill="#2C1810"/>
  <g transform="translate(100, 95)">
    <circle cx="0" cy="-20" r="44" fill="none" stroke="#D85A30" stroke-width="8"/>
    <circle cx="0" cy="-20" r="34" fill="#3D1F14"/>
    <circle cx="0" cy="-20" r="34" fill="none" stroke="#F0997B" stroke-width="2.5"/>
    <circle cx="0" cy="-20" r="22" fill="none" stroke="#EF9F27" stroke-width="2" opacity="0.6"/>
    <circle cx="0" cy="-20" r="13" fill="#D85A30"/>
    <circle cx="0" cy="-20" r="9" fill="#EF9F27"/>
    <circle cx="0" cy="-20" r="4" fill="#FAC775"/>
    <ellipse cx="-12" cy="-32" rx="9" ry="5" fill="#FAC775" opacity="0.15" transform="rotate(-30 -12 -32)"/>
    <path d="M-14 -66 C-18 -78 -10 -86 -13 -96" fill="none" stroke="#EF9F27" stroke-width="3" stroke-linecap="round"/>
    <path d="M0 -70 C3 -82 -4 -90 -1 -100" fill="none" stroke="#FAC775" stroke-width="3" stroke-linecap="round"/>
    <path d="M14 -66 C18 -78 10 -86 13 -96" fill="none" stroke="#EF9F27" stroke-width="3" stroke-linecap="round"/>
    <rect x="30" y="14" width="11" height="42" rx="5.5" fill="#D85A30" transform="rotate(45 30 14)"/>
  </g>
</svg>
